<svg xmlns="http://www.w3.org/2000/svg" viewBox="0 0 384 30" width="370" height="29">
	<style>
		tspan { white-space:pre }
	</style>
	<path id="bardhh@gmail.com " fill="#000000" d="M12.6 14.81Q12.6 11.84 11.37 10.15Q10.16 8.45 8.02 8.45Q5.88 8.45 4.65 10.15Q3.43 11.84 3.43 14.81Q3.43 17.79 4.65 19.48Q5.88 21.17 8.02 21.17Q10.16 21.17 11.37 19.48Q12.6 17.79 12.6 14.81ZM3.43 0.21L3.43 9.08Q4.28 7.62 5.57 6.92Q6.88 6.2 8.68 6.2Q11.67 6.2 13.53 8.57Q15.4 10.94 15.4 14.81Q15.4 18.68 13.53 21.05Q11.67 23.42 8.68 23.42Q6.88 23.42 5.57 22.72Q4.28 22 3.43 20.54L3.43 23L0.72 23L0.72 0.21L3.43 0.21ZM30.01 14.75L27.33 14.75Q24.06 14.75 22.8 15.5Q21.54 16.25 21.54 18.05Q21.54 19.48 22.48 20.33Q23.43 21.17 25.06 21.17Q27.3 21.17 28.64 19.59Q30.01 17.99 30.01 15.35L30.01 14.75ZM32.7 13.64L32.7 23L30.01 23L30.01 20.51Q29.08 22 27.71 22.72Q26.33 23.42 24.34 23.42Q21.82 23.42 20.32 22.02Q18.84 20.6 18.84 18.22Q18.84 15.46 20.69 14.05Q22.55 12.64 26.23 12.64L30.01 12.64L30.01 12.38Q30.01 10.52 28.78 9.51Q27.56 8.48 25.35 8.48Q23.94 8.48 22.61 8.82Q21.28 9.16 20.05 9.83L20.05 7.34Q21.53 6.77 22.92 6.49Q24.31 6.2 25.63 6.2Q29.19 6.2 30.94 8.04Q32.7 9.89 32.7 13.64ZM47.75 6.34L47.76 9.11Q47.31 8.85 46.76 8.73Q46.24 8.6 45.59 8.6Q43.31 8.6 42.08 10.09Q40.86 11.57 40.86 14.36L40.86 23L38.15 23L38.15 6.59L40.86 6.59L40.86 9.14Q41.71 7.65 43.07 6.93Q44.44 6.2 46.38 6.2Q46.66 6.2 47 6.24Q47.34 6.27 47.75 6.34ZM60.86 9.08L60.86 0.21L63.55 0.21L63.55 23L60.86 23L60.86 20.54Q60.01 22 58.7 22.72Q57.41 23.42 55.6 23.42Q52.62 23.42 50.75 21.05Q48.89 18.68 48.89 14.81Q48.89 10.94 50.75 8.57Q52.62 6.2 55.6 6.2Q57.41 6.2 58.7 6.92Q60.01 7.62 60.86 9.08ZM51.67 14.81Q51.67 17.79 52.89 19.48Q54.12 21.17 56.26 21.17Q58.4 21.17 59.63 19.48Q60.86 17.79 60.86 14.81Q60.86 11.84 59.63 10.15Q58.4 8.45 56.26 8.45Q54.12 8.45 52.89 10.15Q51.67 11.84 51.67 14.81ZM82.74 13.1L82.74 23L80.05 23L80.05 13.19Q80.05 10.86 79.14 9.7Q78.23 8.54 76.41 8.54Q74.23 8.54 72.97 9.93Q71.71 11.33 71.71 13.73L71.71 23L69 23L69 0.21L71.71 0.21L71.71 9.14Q72.68 7.66 73.98 6.93Q75.3 6.2 77.01 6.2Q79.84 6.2 81.29 7.96Q82.74 9.7 82.74 13.1ZM88.5 23L88.5 19.28L91.59 19.28L91.59 23L88.5 23ZM111.29 13.1L111.29 23L108.6 23L108.6 13.19Q108.6 10.86 107.69 9.7Q106.78 8.54 104.96 8.54Q102.78 8.54 101.52 9.93Q100.26 11.33 100.26 13.73L100.26 23L97.55 23L97.55 0.21L100.26 0.21L100.26 9.14Q101.23 7.66 102.53 6.93Q103.85 6.2 105.56 6.2Q108.39 6.2 109.84 7.96Q111.29 9.7 111.29 13.1ZM123.02 8.48Q120.86 8.48 119.6 10.18Q118.34 11.87 118.34 14.81Q118.34 17.76 119.58 19.46Q120.84 21.14 123.02 21.14Q125.18 21.14 126.44 19.44Q127.7 17.74 127.7 14.81Q127.7 11.9 126.44 10.2Q125.18 8.48 123.02 8.48ZM123.02 6.2Q126.54 6.2 128.55 8.48Q130.55 10.77 130.55 14.81Q130.55 18.84 128.55 21.14Q126.54 23.42 123.02 23.42Q119.49 23.42 117.49 21.14Q115.5 18.84 115.5 14.81Q115.5 10.77 117.49 8.48Q119.49 6.2 123.02 6.2ZM144.56 6.59L147.74 6.59L141.8 14.58L148.04 23L144.87 23L140.09 16.55L135.31 23L132.14 23L138.51 14.42L132.68 6.59L135.86 6.59L140.21 12.44L144.56 6.59ZM165.49 13.1L165.49 23L162.79 23L162.79 13.19Q162.79 10.86 161.89 9.7Q160.98 8.54 159.16 8.54Q156.98 8.54 155.72 9.93Q154.46 11.33 154.46 13.73L154.46 23L151.75 23L151.75 0.21L154.46 0.21L154.46 9.14Q155.43 7.66 156.73 6.93Q158.05 6.2 159.76 6.2Q162.59 6.2 164.04 7.96Q165.49 9.7 165.49 13.1ZM181 14.75L178.32 14.75Q175.06 14.75 173.8 15.5Q172.54 16.25 172.54 18.05Q172.54 19.48 173.47 20.33Q174.43 21.17 176.05 21.17Q178.29 21.17 179.64 19.59Q181 17.99 181 15.35L181 14.75ZM183.7 13.64L183.7 23L181 23L181 20.51Q180.08 22 178.7 22.72Q177.33 23.42 175.33 23.42Q172.81 23.42 171.32 22.02Q169.84 20.6 169.84 18.22Q169.84 15.46 171.69 14.05Q173.55 12.64 177.22 12.64L181 12.64L181 12.38Q181 10.52 179.77 9.51Q178.56 8.48 176.34 8.48Q174.94 8.48 173.61 8.82Q172.27 9.16 171.04 9.83L171.04 7.34Q172.52 6.77 173.91 6.49Q175.3 6.2 176.62 6.2Q180.18 6.2 181.94 8.04Q183.7 9.89 183.7 13.64ZM197.58 15.13Q197.58 17.23 198.63 18.43Q199.67 19.62 201.48 19.62Q203.28 19.62 204.31 18.42Q205.35 17.21 205.35 15.13Q205.35 13.08 204.29 11.88Q203.24 10.67 201.45 10.67Q199.68 10.67 198.63 11.87Q197.58 13.07 197.58 15.13ZM205.57 21.77L205.57 19.51Q204.69 20.64 203.55 21.18Q202.42 21.71 200.91 21.71Q198.39 21.71 196.81 19.89Q195.24 18.06 195.24 15.13Q195.24 12.2 196.82 10.37Q198.41 8.54 200.91 8.54Q202.42 8.54 203.56 9.1Q204.7 9.64 205.57 10.75L205.57 8.83L207.66 8.83L207.66 19.62Q209.8 19.29 211 17.67Q212.22 16.03 212.22 13.43Q212.22 11.87 211.75 10.49Q211.3 9.11 210.36 7.94Q208.83 6.02 206.64 5.01Q204.46 3.99 201.88 3.99Q200.08 3.99 198.42 4.47Q196.76 4.94 195.36 5.88Q193.06 7.37 191.75 9.8Q190.47 12.22 190.47 15.05Q190.47 17.38 191.3 19.41Q192.15 21.45 193.75 23Q195.29 24.52 197.31 25.33Q199.33 26.12 201.63 26.12Q203.52 26.12 205.33 25.49Q207.17 24.85 208.69 23.66L210.01 25.29Q208.18 26.71 206.01 27.47Q203.85 28.21 201.63 28.21Q198.92 28.21 196.52 27.26Q194.11 26.3 192.24 24.46Q190.36 22.63 189.38 20.23Q188.4 17.81 188.4 15.05Q188.4 12.38 189.4 9.96Q190.39 7.55 192.24 5.71Q194.13 3.85 196.6 2.87Q199.08 1.88 201.85 1.88Q204.95 1.88 207.6 3.15Q210.27 4.43 212.07 6.77Q213.17 8.21 213.74 9.89Q214.33 11.57 214.33 13.38Q214.33 17.23 212 19.46Q209.67 21.68 205.57 21.77ZM219.21 1.94L221.92 1.94L221.92 6.59L227.47 6.59L227.47 8.69L221.92 8.69L221.92 17.59Q221.92 19.6 222.46 20.17Q223.01 20.74 224.7 20.74L227.47 20.74L227.47 23L224.7 23Q221.58 23 220.39 21.84Q219.21 20.67 219.21 17.59L219.21 8.69L217.23 8.69L217.23 6.59L219.21 6.59L219.21 1.94ZM237.37 8.48Q235.2 8.48 233.94 10.18Q232.68 11.87 232.68 14.81Q232.68 17.76 233.93 19.46Q235.19 21.14 237.37 21.14Q239.52 21.14 240.78 19.44Q242.04 17.74 242.04 14.81Q242.04 11.9 240.78 10.2Q239.52 8.48 237.37 8.48ZM237.37 6.2Q240.89 6.2 242.89 8.48Q244.9 10.77 244.9 14.81Q244.9 18.84 242.89 21.14Q240.89 23.42 237.37 23.42Q233.84 23.42 231.83 21.14Q229.84 18.84 229.84 14.81Q229.84 10.77 231.83 8.48Q233.84 6.2 237.37 6.2ZM263.4 6.59L256.19 24.52Q255.05 27.45 253.97 28.35Q252.88 29.24 251.07 29.24L248.91 29.24L248.91 26.98L250.5 26.98Q251.61 26.98 252.22 26.46Q252.84 25.93 253.59 23.97L254.07 22.74L247.43 6.59L250.29 6.59L255.42 19.43L260.54 6.59L263.4 6.59ZM273.48 8.48Q271.31 8.48 270.05 10.18Q268.79 11.87 268.79 14.81Q268.79 17.76 270.04 19.46Q271.3 21.14 273.48 21.14Q275.63 21.14 276.89 19.44Q278.15 17.74 278.15 14.81Q278.15 11.9 276.89 10.2Q275.63 8.48 273.48 8.48ZM273.48 6.2Q276.99 6.2 279 8.48Q281.01 10.77 281.01 14.81Q281.01 18.84 279 21.14Q276.99 23.42 273.48 23.42Q269.95 23.42 267.94 21.14Q265.95 18.84 265.95 14.81Q265.95 10.77 267.94 8.48Q269.95 6.2 273.48 6.2ZM285.43 1.94L288.14 1.94L288.14 6.59L293.69 6.59L293.69 8.69L288.14 8.69L288.14 17.59Q288.14 19.6 288.68 20.17Q289.24 20.74 290.92 20.74L293.69 20.74L293.69 23L290.92 23Q287.8 23 286.62 21.84Q285.43 20.67 285.43 17.59L285.43 8.69L283.45 8.69L283.45 6.59L285.43 6.59L285.43 1.94ZM307.38 14.75L304.69 14.75Q301.43 14.75 300.17 15.5Q298.91 16.25 298.91 18.05Q298.91 19.48 299.85 20.33Q300.8 21.17 302.42 21.17Q304.67 21.17 306.01 19.59Q307.38 17.99 307.38 15.35L307.38 14.75ZM310.07 13.64L310.07 23L307.38 23L307.38 20.51Q306.45 22 305.08 22.72Q303.7 23.42 301.71 23.42Q299.19 23.42 297.69 22.02Q296.21 20.6 296.21 18.22Q296.21 15.46 298.06 14.05Q299.92 12.64 303.6 12.64L307.38 12.64L307.38 12.38Q307.38 10.52 306.14 9.51Q304.93 8.48 302.72 8.48Q301.31 8.48 299.98 8.82Q298.64 9.16 297.41 9.83L297.41 7.34Q298.89 6.77 300.29 6.49Q301.68 6.2 303 6.2Q306.55 6.2 308.31 8.04Q310.07 9.89 310.07 13.64ZM316 23L316 19.28L319.09 19.28L319.09 23L316 23ZM336.96 7.22L336.96 9.74Q335.82 9.11 334.67 8.81Q333.52 8.48 332.35 8.48Q329.73 8.48 328.28 10.15Q326.83 11.81 326.83 14.81Q326.83 17.81 328.28 19.48Q329.73 21.14 332.35 21.14Q333.52 21.14 334.67 20.83Q335.82 20.51 336.96 19.88L336.96 22.37Q335.84 22.9 334.62 23.16Q333.42 23.42 332.06 23.42Q328.35 23.42 326.17 21.1Q323.99 18.77 323.99 14.81Q323.99 10.8 326.18 8.5Q328.4 6.2 332.23 6.2Q333.48 6.2 334.67 6.46Q335.85 6.71 336.96 7.22ZM348.01 8.48Q345.84 8.48 344.58 10.18Q343.32 11.87 343.32 14.81Q343.32 17.76 344.57 19.46Q345.83 21.14 348.01 21.14Q350.16 21.14 351.42 19.44Q352.68 17.74 352.68 14.81Q352.68 11.9 351.42 10.2Q350.16 8.48 348.01 8.48ZM348.01 6.2Q351.53 6.2 353.53 8.48Q355.54 10.77 355.54 14.81Q355.54 18.84 353.53 21.14Q351.53 23.42 348.01 23.42Q344.48 23.42 342.47 21.14Q340.48 18.84 340.48 14.81Q340.48 10.77 342.47 8.48Q344.48 6.2 348.01 6.2ZM372.78 9.74Q373.79 7.93 375.2 7.06Q376.6 6.2 378.51 6.2Q381.07 6.2 382.46 8Q383.85 9.79 383.85 13.1L383.85 23L381.14 23L381.14 13.19Q381.14 10.83 380.31 9.68Q379.47 8.54 377.76 8.54Q375.67 8.54 374.45 9.93Q373.23 11.33 373.23 13.73L373.23 23L370.52 23L370.52 13.19Q370.52 10.81 369.69 9.68Q368.85 8.54 367.11 8.54Q365.05 8.54 363.83 9.95Q362.61 11.34 362.61 13.73L362.61 23L359.9 23L359.9 6.59L362.61 6.59L362.61 9.14Q363.54 7.63 364.83 6.92Q366.12 6.2 367.89 6.2Q369.67 6.2 370.92 7.11Q372.18 8.01 372.78 9.74Z" />
</svg>