<?xml version="1.0" encoding="UTF-8"?>
<svg width="17" height="17.287" fill="#000000" version="1.1" viewBox="0 0 17 17.287" xmlns="http://www.w3.org/2000/svg">
 <path d="m8 0-8 5h5.4922c-0.020598 0.075499-0.053816 0.14412-0.070312 0.22266-0.046 0.242-0.082031 0.50816-0.082031 0.78516 0 3.571 3.6504 3.168 3.6504 3.168v0.91016c0 0.369 0.48402 0.24123 0.54102 0.99023-0.242 0-5.0566-0.13862-5.0566 3.1094 0 3.26 4.25 3.0996 4.25 3.0996s4.9082 0.2195 4.9082-3.8125c2e-3 -2.409-2.8105-3.1932-2.8105-4.1602 0-0.979 2.1191-1.2666 2.1191-3.5586 0-1.002-0.06858-1.7157-0.51758-2.2227-0.035-0.035-0.0578-0.059031-0.0918-0.082031-0.0077-0.0072-0.01755-0.012441-0.02539-0.019531h0.12305l2.0703-1.5527v2.123a0.50005 0.50005 0 0 0 0.011719 0.11523 1.0001 1.0001 0 0 0-0.51172 0.88477v1a1.0001 1.0001 0 1 0 2 0v-1a1.0001 1.0001 0 0 0-0.51172-0.88477 0.50005 0.50005 0 0 0 0.011719-0.11523v-2.875l1.5-1.125zm0.69141 3.0527c0.28781-0.013031 0.57752 0.056891 0.85352 0.21289 0.207 0.104 0.40122 0.2525 0.57422 0.4375 0.357 0.357 0.65736 0.87533 0.81836 1.4863 0.38 1.451-0.11367 2.8463-1.1387 3.1113-1.014 0.287-2.1442-0.65961-2.5352-2.0996-0.173-0.702-0.14912-1.3809 0.04687-1.9219 0.0018-0.00698 0.0059-0.012601 0.0078-0.019531 0.0034-0.00165 0.0085-0.00623 0.01172-0.00781 0.05618-0.21389 0.14802-0.40579 0.25977-0.56445 0.20554-0.30028 0.47663-0.50366 0.81445-0.59375 0.095-0.023 0.19117-0.036672 0.28711-0.041016zm0.39062 8.6328c1.693-0.127 3.1343 0.80527 3.2383 2.0723 0.07 1.256-1.2325 2.3733-2.9375 2.4883-1.693 0.115-3.1553-0.80455-3.2363-2.0605-0.081-1.267 1.2305-2.373 2.9355-2.5z"/>
</svg>
